<svg width="150" height="36" viewBox="0 0 150 36" fill="none" xmlns="http://www.w3.org/2000/svg">
<path d="M22.2381 35.2C17.0095 35.2 12.6 33.3143 8.91428 29.5429C5.22857 25.7714 3.38095 21.2 3.38095 15.8286V0.8H10.5905V15.8286C10.5905 18.4 11.3048 20.6857 12.7333 22.6857C14.1619 24.6857 15.9714 25.6857 18.1619 25.6857C20.2667 25.6857 22.0238 24.7238 23.4333 22.8C24.8429 20.8762 25.5476 18.5143 25.5476 15.7143V0.8H32.7571V34.4H25.5476V29.5429L25.2286 29.8714C23.819 31.6857 22.2476 33.0286 20.5143 33.8C18.8667 34.6571 17.1333 35.0857 15.3143 35.0857L22.2381 35.2Z" fill="hsl(var(--foreground))"/>
<path d="M51.8714 34.4H44.6619V0.8H51.8714V34.4Z" fill="hsl(var(--foreground))"/>
<path d="M85.4619 34.4H78.2524V19.4857L70.0905 34.4H61.681V0.8H68.8905V15.7143L77.0524 0.8H85.4619V34.4Z" fill="hsl(var(--foreground))"/>
<path d="M109.843 35.2C105.881 35.2 102.529 34.1429 99.7857 32.0286C97.0428 29.9143 95.6714 27.2 95.6714 23.8857V0.8H102.881V23.5714C102.881 25.4571 103.495 26.9333 104.724 28C105.952 29.0667 107.381 29.6 109.014 29.6C110.148 29.6 111.238 29.3238 112.281 28.7619C113.324 28.2 114.281 27.4286 115.152 26.4476L118.643 31.4857C117.233 32.9524 115.614 34.0381 113.786 34.7429C111.957 35.4476 110.333 35.8 108.909 35.8L109.843 35.2Z" fill="hsl(var(--foreground))"/>
<path d="M149.2,28.8c-1.4,1.4-3.2,2.1-5.4,2.1s-3.9-0.7-5.4-2.1c-1.4-1.4-2.1-3.2-2.1-5.4c0-2.2,0.7-3.9,2.1-5.4 c1.4-1.4,3.2-2.1,5.4-2.1s3.9,0.7,5.4,2.1c1.4,1.4,2.1,3.2,2.1,5.4C151.3,25.6,150.6,27.4,149.2,28.8z M144.9,27.1 c0.8-0.8,1.2-1.9,1.2-3.3s-0.4-2.5-1.2-3.3c-0.8-0.8-1.9-1.2-3.3-1.2s-2.5,0.4-3.3,1.2c-0.8,0.8-1.2,1.9-1.2,3.3s0.4,2.5,1.2,3.3 c0.8,0.8,1.9,1.2,3.3,1.2S144.1,27.9,144.9,27.1z M143.8,34.4h-9.1V0.8h9.1V34.4z" fill="hsl(var(--primary))"/>
</svg>
