<svg xmlns="http://www.w3.org/2000/svg" width="1000" height="324" viewBox="0 0 1000 324"><path fill="#1A1F71" d="M383.6 109.3c-23.7 0-42.3 4.9-55.9 14.8-13.6 9.8-20.4 25-20.4 45.4 0 16.3 5.4 29.4 16.2 39.2 10.8 9.8 25.9 14.8 45.4 14.8 17.5 0 31.4-3.6 41.7-10.8l-5.4-31.4c-7.9 4.3-16.7 6.5-26.2 6.5-7.1 0-12.8-1.5-17.2-4.3-4.3-2.9-6.5-7.3-6.5-13.4 0-5.8 2.5-10.3 7.6-13.4 5.1-3.2 12.1-4.8 21-4.8 9.4 0 17.4 1.7 23.9 5.1l5.4-31.4c-9.6-6-22.1-9-37.5-9zm-136.2 1c-22.3 0-38.6 4.9-48.8 14.6-10.2 9.7-15.3 22.8-15.3 39.2 0 17.3 5.1 30.8 15.3 40.4 10.2 9.6 26.5 14.4 48.8 14.4s38.6-4.8 48.8-14.4c10.2-9.6 15.3-23.1 15.3-40.4 0-16.4-5.1-29.5-15.3-39.2-10.2-9.7-26.5-14.6-48.8-14.6zm-1.8 85.5c-11.4 0-20-4.1-25.9-12.2-5.9-8.1-8.8-18.4-8.8-30.8s2.9-22.7 8.8-30.8c5.9-8.1 14.5-12.2 25.9-12.2s20 4.1 25.9 12.2c5.9 8.1 8.8 18.4 8.8 30.8s-2.9 22.7-8.8 30.8c-5.9 8.1-14.5 12.2-25.9 12.2zm191.6-86.5L309 253.5h37.5l28-144.2h-36.7zm68.3 0l-43.2 144.2h35.9L527 109.3h-34.9zm135.9 0l-28 144.2h37.5l28-144.2h-37.5zM826.9 109.3l-28.7 103-2.9-15.6c-4-23.5-13.2-36.9-27.6-40.1-11.9-2.5-26.3-1.8-39.3 2.2l-9.1-30.6c13.2-3.8 30.1-5.7 44.5-5.7 29.5 0 49.3 11.2 59.2 33.4l21.2 101.5-5.3-28.2 21.2-120.9h-35.4z"/><path fill="#F7A600" d="M1000 109.3l-59.2 195.4c-3.1 9.8-11.2 14-20.8 14-8.3 0-15.2-3.1-20.8-9.4l-76.3-100.8-40.1 110.2h-35.9L683.4 109.3h36.7l50.8 135.9 74.4-135.9H1000z"/></svg>