<?xml version="1.0" standalone="no"?>
<!DOCTYPE svg PUBLIC "-//W3C//DTD SVG 20010904//EN"
 "http://www.w3.org/TR/2001/REC-SVG-20010904/DTD/svg10.dtd">
<svg version="1.0" xmlns="http://www.w3.org/2000/svg"
 width="1024.000000pt" height="1024.000000pt" viewBox="0 0 1024.000000 1024.000000"
 preserveAspectRatio="xMidYMid meet">

<g transform="translate(0.000000,1024.000000) scale(0.100000,-0.100000)"
fill="#000000" stroke="none">
<path d="M3410 10110 c0 -5 5 -10 11 -10 5 0 7 5 4 10 -3 6 -8 10 -11 10 -2 0
-4 -4 -4 -10z"/>
<path d="M5025 9413 c-36 -9 -83 -52 -104 -96 -47 -98 -12 -255 66 -292 l34
-16 -6 -57 c-24 -216 -96 -539 -165 -737 -55 -158 -130 -244 -221 -253 -58 -5
-90 12 -169 93 -30 31 -62 64 -71 73 -26 27 -94 140 -135 225 l-37 77 20 23
c33 36 41 59 38 111 -3 36 -12 58 -33 85 -37 46 -66 61 -119 61 -98 0 -155
-54 -155 -147 0 -60 27 -107 73 -130 33 -16 36 -20 29 -44 -5 -15 -11 -67 -15
-116 -9 -112 -52 -290 -86 -355 -5 -10 -9 -23 -9 -30 0 -24 -88 -68 -134 -68
-111 0 -285 141 -453 366 -36 49 -70 92 -75 95 -6 4 -5 8 3 11 10 3 14 26 14
85 0 72 -3 83 -28 116 -15 20 -44 49 -64 64 -30 23 -45 28 -87 26 -85 -4 -137
-58 -144 -151 -5 -71 19 -127 72 -167 31 -23 41 -26 85 -20 47 6 51 5 51 -14
0 -11 4 -22 9 -25 15 -10 124 -247 158 -346 9 -25 19 -49 23 -55 4 -5 17 -44
30 -85 70 -238 94 -268 196 -249 27 5 63 11 79 14 17 2 50 9 75 15 25 7 57 13
73 14 15 0 27 4 27 7 0 4 30 10 68 13 37 4 83 9 102 11 19 2 72 5 117 7 46 2
83 5 83 8 0 3 8 6 18 6 9 1 49 4 87 8 223 20 1068 32 1215 17 63 -6 173 -13
243 -16 156 -6 228 -12 332 -30 44 -8 125 -19 180 -25 148 -17 165 -20 165
-30 0 -6 15 -10 33 -10 18 0 59 -7 91 -15 72 -19 85 -13 130 65 26 45 87 200
102 260 0 3 3 12 6 20 4 8 9 24 11 35 14 53 64 172 118 280 33 65 61 120 62
121 1 2 19 -1 40 -5 20 -5 37 -5 37 -1 0 4 11 10 24 14 12 3 42 23 66 45 35
32 43 46 47 85 8 66 -13 132 -51 161 -118 89 -261 14 -281 -148 -7 -51 -5 -60
14 -76 20 -18 30 -38 13 -27 -5 3 -19 -13 -31 -34 -12 -22 -26 -40 -32 -40 -5
0 -9 -5 -9 -11 0 -20 -98 -135 -188 -220 -116 -111 -206 -161 -287 -163 -57
-1 -63 1 -92 34 -71 78 -97 154 -128 379 -22 156 -21 179 14 198 78 45 97 143
41 213 -35 44 -83 62 -151 58 -67 -5 -129 -77 -129 -151 0 -44 23 -100 49
-118 18 -13 16 -18 -52 -136 -82 -139 -101 -165 -177 -247 -62 -66 -116 -95
-176 -96 -32 0 -49 7 -83 36 -34 29 -103 130 -107 154 0 3 -9 25 -21 50 -11
25 -35 92 -52 150 -17 58 -35 119 -41 135 -5 17 -12 50 -15 75 -3 25 -7 56
-10 70 -2 14 -7 41 -10 60 -3 19 -8 46 -10 60 -13 62 -16 80 -25 157 -6 46
-13 90 -16 98 -4 10 0 15 11 15 28 0 81 63 95 114 27 96 -4 199 -75 256 -35
28 -44 30 -114 29 -42 -1 -85 -4 -96 -6z"/>
<path d="M4875 7412 c-1 -2 -83 -5 -181 -8 -213 -5 -350 -12 -384 -19 -14 -3
-70 -7 -125 -10 -126 -7 -261 -23 -325 -39 -14 -3 -41 -8 -60 -10 -32 -4 -93
-13 -130 -20 -49 -9 -71 -21 -84 -46 -15 -31 -9 -38 39 -47 11 -2 22 -8 23
-13 2 -6 9 -7 15 -3 7 4 49 8 93 9 45 2 123 7 174 13 51 6 97 8 102 5 4 -3 8
-1 8 4 0 5 50 10 112 11 62 1 116 5 122 8 5 3 41 6 80 6 57 0 64 1 36 7 -19 5
291 6 690 4 710 -4 870 -7 907 -17 10 -3 70 -7 133 -8 63 -2 120 -7 126 -11
13 -9 177 -22 289 -22 67 -1 70 0 79 26 7 19 6 31 -3 42 -22 26 -353 87 -498
92 -40 1 -77 6 -83 9 -10 6 -126 16 -380 31 -107 6 -769 11 -775 6z"/>
<path d="M4468 7253 c7 -3 16 -2 19 1 4 3 -2 6 -13 5 -11 0 -14 -3 -6 -6z"/>
<path d="M4128 6985 c-3 -3 -246 -14 -327 -15 l-34 0 42 -30 c23 -17 44 -37
48 -45 3 -8 11 -15 17 -15 7 0 23 -11 36 -25 13 -14 28 -25 34 -25 6 0 25 -13
42 -28 27 -24 32 -35 37 -97 4 -39 10 -462 13 -940 l7 -870 -69 -51 c-38 -29
-89 -70 -114 -92 l-45 -40 81 2 c45 0 80 4 78 7 -3 6 115 5 141 -1 6 -1 12 -1
15 0 3 1 154 3 335 5 367 2 464 8 610 36 95 18 224 56 235 68 3 4 23 12 45 20
75 26 141 61 189 101 26 22 52 40 56 40 13 0 97 88 142 149 81 108 148 265
168 393 6 40 13 82 16 94 4 16 -1 23 -23 32 -15 5 -37 13 -48 18 -11 4 -24 8
-30 9 -5 1 -12 3 -15 4 -3 2 -12 4 -20 6 -8 1 -43 10 -76 19 -34 9 -89 16
-123 16 l-61 0 0 -62 c0 -95 -33 -234 -73 -315 -53 -104 -91 -156 -175 -238
-89 -88 -174 -136 -287 -161 -122 -27 -379 -23 -598 10 -17 2 -18 46 -17 886
0 656 3 887 12 897 15 18 291 16 421 -3 98 -14 246 -51 262 -64 6 -5 22 -11
35 -13 48 -9 167 -88 251 -168 53 -51 114 -140 149 -219 13 -30 27 -58 30 -62
5 -7 60 -17 160 -31 100 -14 129 -20 155 -32 59 -26 75 -28 75 -9 0 30 -80
195 -135 278 -114 174 -211 268 -397 384 -92 58 -382 147 -517 158 -31 3 -83
7 -116 11 -62 6 -631 13 -637 8z"/>
<path d="M6813 6925 c-38 -26 -35 -52 9 -90 47 -39 69 -36 87 16 23 67 -38
114 -96 74z"/>
<path d="M3270 6911 c-17 -33 -11 -66 18 -94 34 -33 54 -28 76 18 20 41 20 45
-3 73 -24 28 -76 30 -91 3z"/>
<path d="M7035 6770 c3 -4 -4 -10 -15 -13 -39 -10 -20 -58 42 -105 23 -18 53
-1 67 38 9 26 7 34 -9 50 -11 11 -25 20 -31 20 -5 0 -8 3 -6 8 3 4 -8 7 -24 8
-15 1 -26 -2 -24 -6z"/>
<path d="M3072 6757 c-38 -17 -39 -54 -4 -90 l31 -30 40 34 c21 19 40 39 40
45 1 14 -34 46 -41 38 -4 -3 -15 -1 -25 4 -12 6 -26 6 -41 -1z"/>
<path d="M2871 6554 c-27 -35 -26 -48 5 -90 31 -40 43 -42 78 -9 33 31 34 67
1 85 -14 7 -25 19 -25 27 0 23 -38 14 -59 -13z"/>
<path d="M7216 6558 c-29 -46 -28 -65 1 -98 33 -36 56 -33 78 11 19 36 19 59
-1 87 -20 29 -59 29 -78 0z"/>
<path d="M2727 6353 c-39 -10 -55 -84 -26 -120 36 -43 66 -37 95 19 12 24 13
33 2 55 -16 31 -47 51 -71 46z"/>
<path d="M7386 6338 c-31 -48 -30 -75 2 -108 38 -38 48 -38 72 3 25 41 25 73
0 89 -11 7 -20 18 -20 25 0 22 -39 14 -54 -9z"/>
<path d="M7518 6143 c-41 -47 -27 -89 35 -102 29 -7 37 -6 37 5 0 8 5 14 10
14 13 0 13 56 0 81 -13 24 -61 25 -82 2z"/>
<path d="M2576 6128 c-41 -58 3 -123 64 -98 18 8 33 22 37 38 15 61 -66 110
-101 60z"/>
<path d="M5245 6067 c-243 -45 -446 -163 -555 -323 -94 -136 -168 -360 -176
-534 -2 -52 -6 -107 -9 -122 -4 -23 -1 -28 18 -29 72 -2 362 3 366 6 2 2 5 55
7 117 4 136 9 170 41 268 44 134 126 266 193 311 19 13 37 26 40 29 9 10 84
40 110 45 14 2 47 10 73 16 67 16 323 17 367 2 19 -7 57 -15 83 -19 142 -18
305 -152 383 -313 10 -23 21 -41 24 -41 6 0 84 400 79 404 -42 31 -345 124
-526 161 -139 28 -420 40 -518 22z"/>
<path d="M2447 5898 c-34 -34 -35 -73 -4 -112 l23 -29 32 34 c18 19 32 43 32
54 0 25 -28 67 -40 60 -4 -3 -10 0 -12 7 -3 8 -14 3 -31 -14z"/>
<path d="M7655 5880 c-22 -43 -18 -69 15 -102 30 -28 31 -28 55 -11 58 43 30
143 -39 143 -9 0 -22 -13 -31 -30z"/>
<path d="M2902 5742 c10 -4 -11 -7 -46 -7 -145 0 -337 -148 -374 -287 -6 -21
-8 -38 -5 -38 3 0 0 -6 -6 -13 -15 -19 -9 -219 7 -225 7 -2 12 -9 12 -16 0
-35 119 -67 172 -46 89 35 140 143 89 187 -11 9 -17 21 -14 25 3 5 -10 8 -28
6 -31 -3 -34 -6 -37 -40 -3 -32 6 -47 21 -35 2 1 11 -4 20 -12 41 -34 -41 -85
-120 -74 -34 4 -44 3 -39 -5 4 -7 3 -12 -3 -12 -21 0 -30 36 -36 134 -6 110
54 237 140 298 123 87 225 102 363 53 45 -16 82 -33 82 -37 0 -4 7 -8 16 -8
26 0 150 -138 187 -209 31 -59 57 -141 71 -225 6 -35 8 -209 3 -251 -15 -113
-55 -205 -128 -290 -148 -172 -352 -242 -500 -171 -49 23 -60 34 -89 87 -30
56 -32 67 -27 128 5 75 19 105 71 161 33 35 42 40 83 40 79 0 133 -51 133
-126 0 -26 -24 -54 -47 -54 -13 0 -15 8 -10 45 6 43 5 45 -18 45 -31 0 -38
-13 -38 -74 1 -41 5 -54 27 -73 23 -20 29 -21 60 -10 62 22 86 51 86 104 0 55
-30 124 -67 153 -16 12 -20 20 -12 21 36 2 -52 28 -96 28 -52 1 -155 -38 -155
-59 0 -5 -6 -10 -13 -10 -24 0 -57 -45 -73 -100 -22 -73 -12 -154 28 -234 33
-67 82 -106 171 -137 26 -9 51 -19 54 -23 8 -7 -49 2 -95 16 -18 5 -44 11 -58
13 -32 3 -146 81 -199 134 -21 23 -36 41 -32 41 3 0 -7 21 -23 47 -17 26 -30
50 -30 54 0 3 -8 24 -17 45 -9 22 -17 41 -18 44 0 3 -7 27 -14 53 -13 46 -13
49 11 75 33 37 27 59 -17 58 -19 -1 -35 -5 -35 -10 0 -5 -3 -6 -6 -3 -4 4 -15
-3 -25 -15 -28 -31 -24 -138 4 -121 5 3 7 2 4 -4 -11 -18 22 -104 63 -165 71
-106 31 -84 -65 36 -16 21 -45 54 -62 74 -18 21 -33 40 -33 44 0 4 -6 13 -12
20 -7 7 -26 31 -42 53 -27 37 -86 97 -118 120 -39 28 -129 78 -138 77 -3 0
-14 5 -25 11 -11 6 -25 12 -32 13 -6 1 -29 8 -50 15 -58 20 -217 17 -283 -5
-67 -23 -132 -55 -142 -70 -4 -6 -8 -7 -8 -2 0 16 -119 -114 -134 -147 -46
-99 -56 -263 -20 -333 54 -104 147 -168 260 -180 67 -7 126 12 178 57 47 40
57 70 46 130 -16 83 -90 139 -146 109 -34 -19 -34 -79 1 -116 l25 -27 24 22
c25 24 34 19 41 -21 10 -49 -21 -69 -128 -83 -12 -1 -30 -6 -39 -10 -11 -4
-18 -3 -18 4 0 6 -8 11 -17 11 -26 0 -124 48 -140 68 -51 63 -59 197 -18 286
14 30 25 58 25 63 0 4 16 25 35 46 19 21 35 42 35 48 0 5 7 9 15 9 8 0 15 3
15 8 0 12 84 61 120 69 19 4 87 8 150 8 106 0 120 -2 174 -28 99 -47 246 -171
304 -257 68 -100 189 -228 267 -281 28 -19 52 -37 55 -40 3 -3 21 -11 40 -18
19 -7 44 -17 55 -21 98 -39 117 -43 231 -48 111 -4 129 -2 215 23 52 16 111
39 131 51 21 13 42 24 47 24 15 0 141 122 174 169 119 171 169 381 133 562
-15 78 -21 100 -42 154 -4 11 -8 25 -9 30 -9 36 -60 129 -97 175 -71 88 -250
197 -334 203 -19 1 -34 7 -34 15 0 7 -12 12 -27 11 -21 0 -23 -2 -11 -7z
m-299 -589 c-7 -2 -19 -2 -25 0 -7 3 -2 5 12 5 14 0 19 -2 13 -5z"/>
<path d="M7250 5739 c11 -8 8 -9 -14 -6 -18 3 -35 -1 -43 -9 -8 -8 -23 -14
-33 -14 -10 0 -22 -4 -25 -10 -3 -5 -11 -10 -16 -10 -6 0 -7 5 -3 12 4 7 3 8
-5 4 -6 -4 -9 -11 -6 -16 7 -11 -24 -22 -38 -13 -7 3 -9 3 -5 -2 8 -8 -33 -45
-50 -45 -6 0 -22 -14 -36 -31 -14 -17 -26 -28 -26 -24 0 10 -41 -44 -81 -105
-41 -63 -93 -198 -110 -285 -6 -33 -11 -103 -10 -155 3 -145 8 -173 52 -281
47 -115 76 -158 163 -243 129 -125 271 -179 472 -177 132 1 272 45 371 118 69
50 203 178 203 193 0 5 62 71 138 148 131 133 204 192 237 192 9 0 18 6 21 14
6 17 44 25 144 32 41 3 80 7 87 9 7 2 15 0 17 -4 3 -5 16 -6 30 -4 45 9 139
-43 201 -112 104 -115 137 -203 116 -307 -11 -49 -19 -62 -85 -126 -66 -65
-98 -89 -81 -62 8 12 11 13 -55 -5 -53 -14 -111 -20 -81 -8 8 3 -1 11 -24 19
-21 7 -42 11 -47 8 -4 -3 -8 -4 -8 -2 0 2 -4 17 -9 33 -5 17 -4 41 1 54 l9 25
14 -21 c8 -12 23 -20 32 -18 10 2 21 4 24 4 10 2 29 51 29 77 0 27 -43 74 -67
74 -8 0 -11 -4 -8 -10 3 -5 -4 -12 -17 -15 -36 -10 -78 -72 -78 -115 0 -22 7
-43 15 -50 9 -7 14 -19 11 -25 -2 -7 6 -18 20 -25 13 -8 24 -17 24 -22 0 -17
105 -58 147 -58 74 0 152 36 217 102 66 67 96 131 96 207 0 88 -47 192 -128
281 -62 69 -115 100 -225 135 -114 36 -220 41 -300 13 -121 -41 -234 -108
-221 -131 4 -7 4 -9 -1 -5 -10 9 -147 -123 -223 -216 -96 -117 -152 -177 -152
-163 0 8 11 24 24 37 14 12 28 35 31 51 4 16 10 29 15 29 18 0 54 107 54 163
1 50 -2 62 -23 78 -28 23 -57 24 -77 5 -12 -13 -12 -20 5 -53 20 -38 20 -39 1
-110 -23 -85 -61 -173 -90 -210 -11 -14 -40 -38 -64 -54 -25 -15 -60 -42 -78
-60 -53 -50 -100 -69 -191 -74 -52 -3 -53 10 -1 18 33 5 111 50 131 76 126
159 103 345 -53 428 -47 25 -71 32 -121 32 -60 1 -65 -1 -101 -36 -43 -42 -68
-81 -64 -100 2 -7 -1 -13 -5 -13 -9 0 -9 -42 1 -86 8 -35 66 -74 109 -74 39 0
67 36 67 86 0 33 -5 46 -22 58 -19 14 -24 14 -36 2 -10 -10 -11 -19 -4 -32 13
-27 5 -43 -19 -37 -27 7 -40 45 -33 92 8 49 59 81 130 81 79 0 143 -62 147
-144 1 -14 5 -26 8 -26 13 0 1 -117 -14 -147 -18 -34 -73 -85 -117 -108 -45
-23 -110 -29 -176 -14 -32 7 -63 12 -68 10 -5 -1 -38 13 -75 31 -70 35 -157
110 -147 127 4 5 -9 22 -29 38 -19 15 -35 36 -35 46 0 10 -7 20 -16 24 -13 5
-13 7 -2 14 10 6 8 9 -7 9 -17 0 -17 2 -5 10 8 5 10 10 4 10 -9 0 -46 118 -51
165 -12 112 -2 298 17 335 4 8 10 29 13 45 4 27 16 50 73 149 27 47 135 151
186 179 145 80 299 66 435 -38 115 -88 169 -259 119 -378 l-15 -37 -65 0 c-92
0 -119 35 -69 92 22 25 13 72 -14 76 -13 2 -23 -1 -23 -7 0 -6 -6 -11 -14 -11
-14 0 -36 -49 -36 -81 0 -9 12 -35 26 -58 52 -79 156 -92 243 -29 18 13 25 31
33 95 11 91 7 130 -28 235 -20 62 -31 81 -59 100 -19 12 -35 28 -35 33 -1 25
-244 125 -305 125 -26 0 -44 4 -41 8 2 4 -5 9 -17 9 -18 2 -19 0 -7 -8z"/>
<path d="M2352 5668 c-16 -16 -15 -63 1 -76 6 -6 28 -13 48 -17 31 -6 39 -3
53 16 24 35 21 68 -10 79 -35 14 -77 13 -92 -2z"/>
<path d="M7742 5668 c-16 -16 -15 -33 3 -68 16 -32 51 -40 73 -18 7 7 12 8 12
3 0 -5 7 0 15 12 12 16 12 27 4 52 -10 28 -15 31 -53 31 -23 0 -47 -5 -54 -12z"/>
<path d="M2286 5418 c-22 -31 -20 -51 8 -77 18 -17 32 -21 56 -17 17 2 34 6
36 8 6 7 -19 78 -28 78 -4 0 -8 7 -8 15 0 23 -47 18 -64 -7z"/>
<path d="M7855 5420 c-32 -12 -48 -37 -41 -64 5 -20 13 -25 44 -28 22 -2 44 3
55 12 23 20 22 67 -2 80 -23 12 -29 12 -56 0z"/>
<path d="M2273 5218 c-6 -7 -12 -24 -15 -39 -5 -27 9 -45 51 -67 22 -11 27
-11 38 4 21 28 17 91 -6 104 -26 14 -56 13 -68 -2z"/>
<path d="M7860 5215 c-6 -8 -9 -18 -7 -22 3 -5 0 -19 -8 -32 -10 -20 -10 -27
4 -42 21 -25 31 -24 64 6 29 28 32 40 17 79 -11 29 -50 36 -70 11z"/>
<path d="M5182 4659 c-13 -5 -35 -11 -50 -14 -15 -2 -85 -16 -157 -29 -71 -14
-147 -28 -167 -31 -36 -6 -54 -25 -24 -25 7 0 25 -15 39 -32 14 -18 47 -56 73
-84 27 -28 74 -77 104 -110 87 -94 309 -332 372 -399 158 -165 197 -207 246
-259 29 -31 58 -53 64 -50 7 4 8 2 4 -5 -4 -6 -39 -27 -77 -45 -38 -19 -75
-38 -82 -44 -27 -22 -271 -143 -354 -176 -220 -85 -365 -115 -598 -121 -143
-4 -171 -1 -265 20 -202 47 -326 111 -445 230 -81 80 -94 99 -123 170 -39 99
-65 254 -57 338 8 75 31 236 43 295 11 51 -2 55 -40 15 -26 -29 -108 -155
-108 -167 0 -4 -9 -28 -21 -53 -23 -50 -23 -51 -44 -143 -26 -114 -16 -270 26
-411 22 -72 95 -178 175 -251 135 -125 340 -214 532 -232 29 -3 57 -8 62 -11
12 -8 300 -13 300 -5 0 3 19 6 43 6 139 3 383 67 555 145 35 16 70 29 78 29 8
0 14 4 14 10 0 5 3 9 8 8 13 -3 87 21 108 36 11 8 74 43 140 76 65 34 126 67
134 74 8 7 34 24 58 36 23 13 42 27 42 32 0 4 14 8 30 8 17 0 30 -5 30 -11 0
-12 40 -48 54 -49 4 0 20 -12 35 -26 14 -14 53 -46 86 -72 57 -44 82 -61 130
-86 11 -6 34 -21 50 -32 17 -12 34 -22 38 -22 8 0 53 -16 102 -37 43 -19 127
-47 150 -51 250 -42 409 -28 566 52 149 75 253 260 252 449 -1 110 -25 181
-88 259 -77 94 -206 159 -369 187 -135 23 -373 1 -532 -49 -58 -18 -271 -129
-320 -166 l-49 -38 -25 30 c-14 16 -79 91 -145 167 -66 76 -147 170 -179 209
-33 39 -83 97 -112 128 -29 32 -77 90 -108 130 -30 40 -75 96 -100 123 -25 28
-45 53 -46 57 0 15 -36 25 -58 17z m1615 -784 c112 -8 217 -54 276 -120 26
-29 55 -94 62 -140 8 -45 -22 -145 -61 -206 -19 -31 -78 -83 -94 -84 -3 0 -16
-8 -30 -17 -14 -9 -58 -23 -99 -32 -66 -13 -84 -13 -150 -1 -164 32 -306 105
-438 229 -40 37 -99 89 -133 116 l-60 48 29 21 c16 12 32 21 36 21 4 0 19 9
35 20 15 11 30 17 34 13 3 -3 6 -1 6 5 0 6 17 16 38 23 20 6 48 17 62 24 104
53 288 96 375 89 22 -2 73 -6 112 -9z"/>
<path d="M4775 2769 c-35 -22 -83 -24 -151 -5 -60 16 -94 18 -94 5 0 -6 -4 -8
-9 -5 -8 5 -71 -63 -71 -77 0 -3 28 -4 63 -2 34 2 93 -3 131 -11 60 -13 71
-12 101 2 31 14 44 34 60 92 7 26 8 26 -30 1z"/>
<path d="M3653 2568 c-2 -5 8 -19 22 -32 36 -33 44 -103 45 -374 0 -220 -6
-260 -43 -291 -10 -7 -17 -17 -17 -22 0 -5 112 -9 250 -9 l249 0 12 43 c17 57
18 149 2 154 -7 3 -13 -1 -13 -7 0 -28 -47 -74 -97 -96 -62 -28 -157 -33 -189
-10 -17 13 -19 30 -22 134 -4 114 -3 119 17 125 11 3 38 1 58 -5 21 -5 48 -12
61 -15 13 -3 28 -16 34 -29 6 -13 17 -24 25 -24 10 0 13 23 13 99 0 92 -11
135 -26 97 -12 -30 -91 -52 -172 -47 -17 1 -22 6 -18 19 3 9 6 55 7 102 2 101
16 131 57 126 133 -17 148 -23 205 -77 16 -16 32 -27 35 -25 2 3 -1 42 -8 88
l-11 83 -236 0 c-129 0 -237 -3 -240 -7z"/>
<path d="M4315 2562 c14 -7 35 -32 47 -55 21 -40 22 -55 22 -292 1 -137 -3
-263 -7 -278 -4 -16 -24 -44 -44 -62 l-36 -33 117 0 c64 0 116 4 116 9 0 4 -8
14 -18 21 -50 35 -54 56 -60 288 -3 121 -3 220 0 220 14 0 56 -50 163 -195
280 -379 263 -360 319 -350 l32 7 -4 299 c-5 320 -3 339 45 388 22 23 27 43
10 42 -4 -1 -55 -1 -113 -1 -94 0 -104 -2 -90 -15 8 -8 17 -15 20 -15 3 0 17
-12 33 -26 l27 -25 4 -220 c3 -120 0 -219 -4 -219 -5 0 -20 16 -33 35 -13 19
-34 47 -47 62 -13 16 -24 33 -24 40 0 6 -3 13 -7 15 -8 3 -110 139 -143 188
-8 12 -21 28 -27 36 -7 7 -13 16 -13 20 0 4 -19 31 -42 60 -48 59 -55 62 -185
66 -72 3 -79 2 -58 -10z"/>
<path d="M5424 2573 c-17 -3 -28 -22 -49 -81 -16 -42 -48 -124 -73 -182 -24
-58 -59 -150 -77 -205 -45 -138 -79 -202 -120 -227 -19 -11 -35 -23 -35 -27 0
-4 38 -6 85 -5 47 1 100 -2 117 -7 49 -14 55 4 14 42 -41 37 -46 68 -21 153
l15 52 83 2 c45 1 103 -4 129 -10 45 -11 49 -15 63 -58 30 -91 25 -119 -28
-161 -19 -15 -9 -16 141 -15 89 0 162 3 162 6 0 3 -9 11 -20 17 -30 20 -97
129 -116 192 -10 31 -20 61 -24 66 -4 6 -24 60 -44 120 -21 61 -41 119 -46
130 -5 11 -14 38 -21 60 -6 22 -22 64 -35 93 -25 54 -33 58 -100 45z m26 -263
c4 -14 20 -55 34 -92 18 -48 22 -68 13 -69 -30 -2 -182 3 -186 7 -2 2 1 14 7
27 7 12 18 40 26 62 7 22 26 68 41 103 l28 62 14 -37 c8 -21 18 -49 23 -63z
m110 -180 c0 -5 -4 -10 -10 -10 -5 0 -10 5 -10 10 0 6 5 10 10 10 6 0 10 -4
10 -10z"/>
<path d="M5890 2564 c0 -6 11 -17 25 -24 51 -27 56 -59 55 -327 -1 -276 -7
-316 -53 -339 -16 -9 -26 -18 -22 -22 7 -8 225 -12 225 -5 0 3 -13 20 -29 38
-17 20 -33 54 -40 85 -13 58 -15 396 -3 404 14 8 27 -6 101 -114 40 -58 80
-110 88 -117 9 -7 21 -21 27 -31 19 -33 123 -176 145 -199 12 -12 21 -27 21
-32 0 -34 108 -69 126 -40 4 7 6 154 5 328 l-2 316 38 40 38 40 -115 5 c-63 3
-118 4 -122 2 -13 -5 4 -32 21 -32 26 0 59 -40 65 -80 10 -58 16 -410 8 -410
-9 0 -64 72 -98 127 -24 39 -65 79 -77 75 -5 -1 -6 2 -2 8 3 5 -18 42 -47 82
-29 40 -70 98 -91 129 -63 94 -68 97 -185 101 -68 2 -102 -1 -102 -8z"/>
<path d="M3229 2563 c-35 -5 -105 -66 -125 -109 -26 -54 -15 -143 22 -197 17
-23 32 -40 34 -38 3 3 17 -6 31 -20 29 -26 127 -79 146 -79 6 0 20 -14 30 -30
9 -17 25 -32 34 -35 22 -7 32 -46 23 -91 -9 -51 -54 -79 -123 -78 -53 1 -57 3
-101 51 -25 27 -54 74 -65 103 -34 91 -45 77 -43 -58 l1 -120 66 -13 c36 -7
100 -13 142 -13 184 0 291 128 229 272 -29 66 -90 122 -193 173 -43 22 -93 55
-110 73 -28 29 -32 39 -29 74 5 56 37 84 95 84 62 1 140 -58 156 -118 6 -23
18 -47 26 -54 14 -12 15 -2 13 96 l-3 109 -65 11 c-65 12 -142 15 -191 7z"/>
<path d="M6738 2559 c-22 -6 -22 -6 8 -24 18 -11 37 -28 44 -38 16 -26 24
-507 9 -564 -7 -25 -21 -49 -35 -58 -53 -34 -31 -38 179 -31 217 8 265 15 341
54 75 37 122 92 146 170 73 233 -36 435 -260 481 -59 12 -394 20 -432 10z
m403 -70 c55 -14 122 -83 149 -154 36 -95 37 -162 6 -248 -30 -83 -62 -124
-126 -160 -39 -22 -54 -26 -115 -23 -60 3 -72 7 -92 31 -23 26 -23 27 -21 288
l3 261 40 12 c40 12 88 10 156 -7z"/>
<path d="M7899 2561 c-89 -19 -189 -102 -240 -201 -31 -60 -34 -72 -34 -160 0
-86 3 -101 32 -162 37 -79 94 -139 166 -174 99 -49 292 -42 373 13 19 12 39
23 45 23 10 0 79 65 80 75 0 2 12 31 26 62 21 46 28 78 31 150 4 82 1 102 -24
173 -32 94 -71 136 -162 178 -47 21 -74 26 -157 28 -55 2 -116 -1 -136 -5z
m191 -76 c98 -32 144 -108 156 -260 7 -78 -5 -133 -42 -209 -25 -50 -68 -99
-78 -88 -3 3 -6 1 -6 -5 0 -12 -75 -33 -117 -33 -47 0 -116 32 -160 73 -23 22
-41 43 -41 46 1 3 -2 13 -5 21 -25 56 -34 118 -32 199 2 49 7 95 11 103 5 7 9
15 9 18 1 13 50 90 57 90 5 0 22 14 38 30 17 17 30 29 30 27 0 -3 15 -1 33 4
37 9 84 4 147 -16z"/>
<path d="M1830 2552 c0 -4 10 -12 22 -17 47 -20 53 -54 55 -290 1 -262 -7
-342 -36 -366 -41 -33 -26 -39 102 -38 216 1 335 14 394 43 75 37 131 92 160
156 20 45 25 73 26 150 2 89 0 100 -33 169 -27 58 -44 81 -85 111 -70 51 -91
62 -160 76 -65 14 -445 20 -445 6z m440 -78 c31 -10 54 -27 75 -55 17 -22 35
-45 40 -52 11 -14 12 -17 27 -97 11 -61 6 -159 -12 -205 -17 -45 -57 -93 -99
-119 -49 -31 -137 -50 -193 -42 -65 10 -68 24 -68 329 l0 256 28 4 c43 8 153
-3 202 -19z"/>
<path d="M2691 2518 l39 -43 0 -268 c0 -282 -1 -289 -48 -339 l-26 -28 137 0
c75 0 137 4 137 8 0 5 -9 17 -20 27 -40 36 -45 77 -45 350 0 244 1 262 20 287
11 15 26 28 33 28 6 0 12 5 12 10 0 6 -53 10 -139 10 l-139 0 39 -42z"/>
<path d="M7334 1586 c-34 -15 -86 -73 -91 -103 -8 -44 -4 -103 10 -129 26 -49
92 -98 187 -139 43 -18 103 -65 84 -65 -5 0 -3 -4 4 -8 17 -12 18 -77 1 -98
-23 -28 -67 -42 -108 -34 -59 11 -106 55 -137 129 -15 37 -31 70 -36 76 -10
11 -11 -206 0 -221 7 -11 88 -32 125 -33 129 -3 136 -2 197 29 67 34 96 119
69 201 -19 55 -68 98 -165 144 -112 53 -138 82 -131 144 6 51 36 81 77 76 14
-2 26 -4 28 -6 1 -1 6 -2 11 -3 15 -2 90 -70 85 -77 -2 -4 3 -9 10 -12 8 -3
16 -17 18 -32 2 -14 8 -26 13 -25 6 0 11 37 13 84 l3 85 -52 15 c-64 19 -173
20 -215 2z"/>
<path d="M2764 1577 c-62 -24 -109 -64 -138 -118 -77 -140 -65 -298 30 -409
24 -29 44 -49 44 -46 0 3 19 -4 41 -16 23 -12 69 -24 103 -27 74 -7 229 10
250 28 12 10 16 33 16 92 0 77 -12 111 -24 65 -3 -13 -27 -46 -53 -73 -47 -49
-49 -49 -114 -52 -59 -2 -70 1 -115 31 -71 48 -107 118 -110 218 -2 63 2 83
23 127 42 86 121 144 186 137 21 -3 37 0 37 6 0 5 4 10 8 10 13 0 102 -84 102
-97 0 -6 6 -16 14 -22 7 -6 16 -29 20 -51 3 -22 11 -40 16 -40 9 0 11 30 14
167 1 24 -7 32 -49 53 -43 21 -66 25 -160 27 -66 1 -122 -3 -141 -10z"/>
<path d="M3260 1578 c0 -4 11 -19 25 -33 30 -33 35 -69 39 -255 2 -105 8 -159
20 -195 23 -68 71 -109 143 -124 139 -28 248 2 288 79 18 34 28 170 34 432 1
16 13 38 31 55 17 15 30 30 30 33 0 3 -43 5 -95 5 -52 1 -95 0 -95 -2 0 -1 13
-16 29 -34 36 -39 42 -69 42 -218 -1 -176 -20 -246 -78 -282 -18 -11 -33 -25
-33 -30 0 -6 -8 -6 -19 1 -11 5 -37 10 -58 10 -49 0 -77 20 -105 73 -20 39
-22 57 -22 235 l-1 194 28 22 c15 12 27 26 27 31 0 6 -48 10 -115 10 -63 0
-115 -3 -115 -7z"/>
<path d="M4634 1582 l-151 -3 -11 -37 c-25 -82 -37 -176 -19 -151 2 2 15 23
30 46 35 54 63 72 124 80 l50 5 7 -42 c4 -24 6 -130 6 -237 -2 -191 -9 -239
-41 -258 -24 -15 0 -20 106 -22 103 -3 141 5 102 20 -8 3 -21 21 -30 40 -14
30 -17 72 -17 269 l0 234 53 -6 c71 -8 88 -20 128 -85 18 -30 37 -55 42 -55
12 0 1 79 -21 148 l-16 54 -93 -4 c-51 -2 -94 -1 -95 2 -2 3 -71 4 -154 2z"/>
<path d="M6751 1518 c-42 -96 -60 -138 -116 -288 -65 -171 -73 -186 -111 -222
-18 -17 -31 -35 -28 -40 3 -5 48 -8 100 -7 l95 2 -26 27 c-29 30 -31 60 -10
133 l15 52 80 -2 c118 -2 125 -5 144 -62 21 -65 20 -87 -4 -121 l-20 -28 130
-1 c72 0 130 2 130 5 0 2 -15 18 -34 34 -18 17 -39 45 -46 62 -7 18 -19 47
-26 63 -7 17 -29 80 -50 140 -20 61 -50 148 -66 195 -17 47 -31 94 -32 105 -2
16 -11 21 -48 23 l-45 3 -32 -73z m63 -150 c16 -34 30 -71 30 -82 1 -12 5 -26
8 -31 16 -25 -9 -34 -82 -30 -55 3 -74 8 -72 17 2 7 17 46 33 86 16 41 29 80
29 88 0 33 27 9 54 -48z"/>
<path d="M3987 1574 c-4 -4 8 -14 26 -23 42 -21 47 -46 46 -271 -1 -201 -8
-267 -33 -286 -42 -30 -18 -34 205 -33 158 0 221 4 224 12 3 7 7 32 9 57 2 25
7 52 10 60 3 8 1 22 -5 30 -8 12 -12 12 -16 2 -12 -30 -70 -71 -122 -85 -104
-30 -109 -30 -137 -2 l-25 25 5 212 c2 117 6 224 9 238 3 14 6 28 6 32 1 4 11
8 23 10 12 2 23 9 26 16 3 9 -26 12 -120 12 -69 0 -128 -3 -131 -6z"/>
<path d="M5110 1576 c0 -2 16 -20 35 -39 l35 -35 1 -153 c0 -85 2 -173 5 -197
8 -72 38 -128 85 -159 40 -26 48 -28 148 -27 125 1 143 4 172 30 25 22 56 80
64 120 4 16 6 106 5 200 -1 183 5 213 46 235 13 7 24 15 24 19 0 3 -45 7 -100
8 -99 2 -128 -8 -77 -27 42 -16 49 -47 51 -232 1 -165 0 -177 -23 -222 -32
-65 -68 -87 -138 -81 -125 9 -145 47 -151 287 -5 187 -2 203 33 245 l25 29
-120 2 c-66 1 -120 0 -120 -3z"/>
<path d="M5840 1570 c0 -7 9 -14 20 -17 34 -9 40 -57 38 -307 -3 -233 -3 -238
-25 -256 -13 -10 -23 -20 -23 -23 0 -2 51 -5 112 -6 l113 -2 -28 29 c-25 26
-28 37 -34 131 l-6 102 38 -3 c35 -3 41 -7 66 -56 15 -30 35 -62 43 -71 9 -10
16 -23 16 -29 0 -7 4 -12 8 -12 5 0 15 -12 23 -26 19 -37 69 -56 147 -56 44 0
68 11 42 20 -36 11 -130 123 -164 193 -31 65 -34 75 -20 84 65 41 104 99 104
154 0 54 -37 109 -89 133 -39 18 -70 21 -213 25 -126 4 -168 2 -168 -7z m261
-48 c29 -3 77 -62 84 -102 12 -72 -40 -126 -137 -144 l-38 -7 0 119 c0 69 4
122 11 129 9 9 25 10 80 5z"/>
</g>
</svg>
