<svg width="150" height="30" viewBox="0 0 150 30" fill="none" xmlns="http://www.w3.org/2000/svg">
<path d="M14.393 2.5H25.011L19.702 14.86L25.324 27.5H14.706L11.897 22.09L9.088 27.5H-1.5259e-05L9.361 11.23L4.052 2.5H14.393ZM20.733 4.5H16.27L9.585 17.59L11.524 21.28L15.349 25.5H22.951L18.496 17.22L20.733 4.5Z" fill="hsl(var(--foreground))"/>
<path d="M43.0768 2.5V27.5H30.4078V2.5H43.0768ZM41.0768 4.5H32.4078V25.5H41.0768V4.5Z" fill="hsl(var(--foreground))"/>
<path d="M53.6491 2.5H66.1911V4.5H55.6491V12.82H64.9191V14.82H55.6491V25.5H66.3291V27.5H53.6491V2.5Z" fill="hsl(var(--foreground))"/>
<path d="M85.4523 2.5H98.1213V27.5H96.1213V15.55L87.4523 27.5H85.5913L85.4523 2.5ZM87.4523 4.44V22.45L95.5843 4.5H87.4523V4.44Z" fill="hsl(var(--foreground))"/>
<path d="M109.914 2.5L102.046 27.5H100.015L107.883 2.5H109.914Z" fill="hsl(var(--foreground))"/>
<path d="M125.992 2.5H138.661V27.5H125.992V2.5ZM136.661 4.5H127.992V25.5H136.661V4.5Z" fill="hsl(var(--foreground))"/>
<path d="M142.113 2.5H150V4.5H144.113V27.5H142.113V2.5Z" fill="hsl(var(--foreground))"/>
</svg>
